<svg id="b251a99f-e9e5-4fb5-ac8e-1a8c6a7ab546" data-name="Layer 1" xmlns="http://www.w3.org/2000/svg" viewBox="0 0 366 61">
  <title>achalendra-logo</title>
  <g>
    <path d="M0,0ZM0,0Z" transform="translate(-4 -5)" style="fill: #ff9800"/>
    <g>
      <path d="M0,0Z" transform="translate(-4 -5)"/>
      <path d="M0,0Z" transform="translate(-4 -5)"/>
      <path d="M0,0Z" transform="translate(-4 -5)"/>
      <path d="M0,0Z" transform="translate(-4 -5)"/>
      <path d="M0,0Z" transform="translate(-4 -5)"/>
      <path d="M0,0Z" transform="translate(-4 -5)"/>
      <path d="M0,0Z" transform="translate(-4 -5)"/>
      <path d="M0,0ZM0,0Z" transform="translate(-4 -5)"/>
      <path d="M0,0ZM0,0Z" transform="translate(-4 -5)"/>
      <path d="M0,0ZM0,0Z" transform="translate(-4 -5)"/>
    </g>
    <g>
      <path d="M0,0ZM0,0Z" transform="translate(-4 -5)" style="fill: #ff9800"/>
      <path d="M0,0Z" transform="translate(-4 -5)" style="fill: #ff9800"/>
      <path d="M0,0Z" transform="translate(-4 -5)" style="fill: #ff9800"/>
      <path d="M0,0ZM0,0Z" transform="translate(-4 -5)" style="fill: #ff9800"/>
      <path d="M0,0ZM0,0Z" transform="translate(-4 -5)" style="fill: #ff9800"/>
      <path d="M0,0ZM0,0Z" transform="translate(-4 -5)" style="fill: #ff9800"/>
      <path d="M0,0Z" transform="translate(-4 -5)" style="fill: #ff9800"/>
    </g>
  </g>
</svg>
